<?xml version="1.0" encoding="UTF-8"?>
<!DOCTYPE svg PUBLIC "-//W3C//DTD SVG 1.1//EN" "http://www.w3.org/Graphics/SVG/1.1/DTD/svg11.dtd" [
  <!ENTITY fill_color "#FFFFFF">
  <!ENTITY stroke_color "#010101">
]>
<svg
   xmlns:dc="http://purl.org/dc/elements/1.1/"
   xmlns:cc="http://creativecommons.org/ns#"
   xmlns:rdf="http://www.w3.org/1999/02/22-rdf-syntax-ns#"
   xmlns:svg="http://www.w3.org/2000/svg"
   xmlns="http://www.w3.org/2000/svg"
   version="1.1"
   width="50"
   height="50"
   id="svg3144">
  <defs
     id="defs3166" />
  <rect x="3" y="14" width="44" height="32" style="fill:&fill_color;"/>
  <g
     transform="matrix(0.92749638,0,0,0.92749638,-79.079809,-162.11289)"
     id="g3255" style="fill:&stroke_color;">
    <path
       d="m 102.663,205.694 c -2.07,-0.034 -3.716,-1.688 -3.685,-3.698 0.032,-2.104 1.733,-3.761 3.821,-3.724 2.029,0.035 3.687,1.721 3.681,3.739 -0.005,2.099 -1.685,3.72 -3.817,3.683 z"
       id="path3209" />
    <path
       d="M 135.948,225.726 H 88.485 v -36.834 h 47.462 v 36.834 z m -44.811,-2.651 h 42.16 v -31.533 h -42.16 v 31.533 z"
       id="path3211" />
    <path
       d="M 131.272,221.051 H 93.161 v -27.484 h 38.111 v 27.484 z M 94.461,219.75 h 35.511 V 194.867 H 94.461 v 24.883 z"
       id="path3213" />
    <circle
       cx="112.217"
       cy="180.13499"
       r="2.1140001"
       id="circle3215" />
    <path
       d="m 101.315,190.439 c -0.256,0 -0.512,-0.098 -0.707,-0.293 -0.391,-0.391 -0.391,-1.023 0,-1.414 l 6.623,-6.623 c 0.391,-0.391 1.023,-0.391 1.414,0 0.391,0.391 0.391,1.023 0,1.414 l -6.623,6.623 c -0.195,0.195 -0.451,0.293 -0.707,0.293 z"
       id="path3217" />
    <path
       d="m 122.918,190.439 c -0.256,0 -0.512,-0.098 -0.707,-0.293 l -6.624,-6.623 c -0.391,-0.39 -0.391,-1.023 0,-1.414 0.391,-0.391 1.023,-0.391 1.414,0 l 6.624,6.623 c 0.391,0.391 0.391,1.023 0,1.414 -0.195,0.195 -0.451,0.293 -0.707,0.293 z"
       id="path3219" />
    <polygon
       points="93.811,220.4 93.811,213.334 109.114,216.681 130.564,216.681 130.344,220.4 "
       id="polygon3221" />
    <polygon
       points="123.572,212.654 123.572,216.681 121.615,216.681 121.615,212.652 117.72,212.652 122.499,199.135 127.323,212.654 "
       id="polygon3223" />
    <polygon
       points="113.482,214.6 113.482,217.319 112.16,217.319 112.16,214.599 109.53,214.599 112.758,205.469 116.015,214.6 "
       id="polygon3225"/>
  </g>
</svg>
